.
..............................Site Info...........................

 -   http://www.scenetime.com  *_*    SceneTime is going to open Sign Up for few days on jul/10.


Scenetime .Always on time . friendly online private torrent community ..

     We care to share . Join us on  http://www.scenetime.com 

    Be the first to get new release at  http://www.scenetime.com

        Seed back for speed


...................................NFO:.................................................[img]http://www.shotpix.com/images/80849960438416482430.jpg[/img]
 
http://www.imdb.com/title/tt1602472/

SOURCE---OUR OWN

2 Days In New York 2012 VODRip XviD HS


Format                                   : AVI
Format/Info                              : Audio Video Interleave
Format profile                           : OpenDML
File size                                : 1.43 GiB
Duration                                 : 1h 35mn
Overall bit rate                         : 2 140 Kbps
Writing application                      : Lavf52.103.0

Video
ID                                       : 1
Format                                   : MPEG-4 Visual
Format profile                           : Simple@L1
Format settings, BVOP                    : No
Format settings, QPel                    : No
Format settings, GMC                     : No warppoints
Format settings, Matrix                  : Default (H.263)
Codec ID                                 : XVID
Duration                                 : 1h 35mn
Bit rate                                 : 1 998 Kbps
Width                                    : 640 pixels
Height                                   : 346 pixels
Display aspect ratio                     : 1.85:1
Frame rate                               : 23.976 fps
Color space                              : YUV
Chroma subsampling                       : 4:2:0
Bit depth                                : 8 bits
Scan type                                : Progressive
Compression mode                         : Lossy
Bits/(Pixel*Frame)                       : 0.376
Stream size                              : 1.33 GiB (93%)
Writing library                          : Lavc52.116.0

Audio
ID                                       : 0
Format                                   : MPEG Audio
Format version                           : Version 1
Format profile                           : Layer 3
Mode                                     : Joint stereo
Mode extension                           : MS Stereo
Codec ID                                 : 55
Codec ID/Hint                            : MP3
Duration                                 : 1h 35mn
Bit rate mode                            : Constant
Bit rate                                 : 128 Kbps
Channel(s)                               : 2 channels
Sampling rate                            : 44.1 KHz
Compression mode                         : Lossy
Stream size                              : 87.4 MiB (6%)
Alignment                                : Aligned on interleaves
Interleave, duration                     : 42 ms (1.00 video frame)
Writing library                          : LAME3.98.4



[img]http://www.shotpix.com/images/30584987247283278979.png[/img]

[img]http://www.shotpix.com/images/71145689562428751031.png[/img]

[img]http://www.shotpix.com/images/57541050995752757412.png[/img]

GREETZ--HS
